<?xml version="1.0" encoding="iso-8859-1"?>
<!-- Generator: Adobe Illustrator 19.0.0, SVG Export Plug-In . SVG Version: 6.00 Build 0)  -->
<svg version="1.1" id="Layer_1" xmlns="http://www.w3.org/2000/svg" xmlns:xlink="http://www.w3.org/1999/xlink" x="0px" y="0px"
	 viewBox="0 0 339.039 339.039" style="enable-background:new 0 0 339.039 339.039;" xml:space="preserve">
<g id="XMLID_834_">
	<path id="XMLID_34_" style="fill:#9FCBA5;" d="M301.342,218.043H81.628V70.336h219.714c18.605,0,33.687,15.082,33.687,33.687
		v80.334C335.028,202.961,319.946,218.043,301.342,218.043z"/>
	<circle id="XMLID_836_" style="fill:#2B7B57;" cx="143.186" cy="295.753" r="43.286"/>
	<circle id="XMLID_837_" style="fill:#2B7B57;" cx="269.36" cy="295.753" r="43.286"/>
	<g id="XMLID_838_">
		<path id="XMLID_839_" style="fill:#2B7B57;" d="M320.545,272.976H106.298c-21.622,0-39.15-17.528-39.15-39.15V39.15
			c0-5.053-4.097-9.15-9.15-9.15H18.494c-8.284,0-15-6.716-15-15l0,0c0-8.284,6.716-15,15-15h39.504
			C79.62,0,97.147,17.528,97.147,39.149v194.676c0,5.053,4.097,9.15,9.15,9.15h214.248c8.284,0,15,6.716,15,15l0,0
			C335.545,266.26,328.829,272.976,320.545,272.976z"/>
	</g>
	<path id="XMLID_9_" style="fill:#49B86E;" d="M253.525,169.598c-26.503,26.503-78.995,16.98-78.995,16.98
		s-9.523-52.492,16.98-78.995c18.839-18.839,50.81-19.475,67.725-18.268c6.735,0.481,12.077,5.822,12.557,12.557
		C273,118.788,272.364,150.759,253.525,169.598z"/>
	<g id="XMLID_840_">
		<path id="XMLID_842_" style="fill:#2B7B57;" d="M161.669,199.439L161.669,199.439c-4.882-4.882-4.882-12.796,0-17.678
			l43.171-43.171c4.882-4.882,12.796-4.882,17.678,0l0,0c4.882,4.882,4.882,12.796,0,17.678l-43.171,43.171
			C174.465,204.321,166.551,204.321,161.669,199.439z"/>
	</g>
</g>
<g>
</g>
<g>
</g>
<g>
</g>
<g>
</g>
<g>
</g>
<g>
</g>
<g>
</g>
<g>
</g>
<g>
</g>
<g>
</g>
<g>
</g>
<g>
</g>
<g>
</g>
<g>
</g>
<g>
</g>
</svg>
